# xmcd CD database file generated by OrangeCD 6.3
#
# Track frame offsets:
#	150
#	18319
#	39794
#	61435
#	76889
#	91210
#	104850
#	119569
#	131172
#	141453
#	150960
#	161262
#	173859
#	183286
#	190154
#	201809
#	217922
#	238257
#	252152
#	269785
#	279542
#	294582
#	310391
#
# Disc length: 4323 seconds
#
# Revision: 0
# Processed by: cddbd v1.5.2PL0 Copyright (c) Steve Scherf et al.
# Submitted via: OrangeCD 6.3
#
DISCID=5310e117
DTITLE=Various Artist - Hightone Recods: 15 Years of American Music
DYEAR=1998
DGENRE=
TTITLE0=Dave Alvin - California Snow
TTITLE1=Ramblin' Jack Elliot (with Tom Waits) - Louise
TTITLE2=Geoff Muldaur - Wild Ox Moon
TTITLE3=Katy Moffatt - Mother of Pearl
TTITLE4=Chris Smither - Rock 'n' Roll Doctor
TTITLE5=James Armstrong - Dark Night
TTITLE6=Redd Volkaert - You're Still on my Mind
TTITLE7=Hot Club of Cowtown - Sweet Jenny Lee
TTITLE8=Deke Dickerson - Long time in the ground
TTITLE9=mack stevens - rockabilly romance
TTITLE10=kim lenz - shake a leg
TTITLE11=the fly-rite boys - hit and run
TTITLE12=big sandy - lonely guy
TTITLE13=reverend billy c, wirtz - i hold your hand in mine
TTITLE14=bill kirchen - swing fever
TTITLE15=tom russell - navajo rug
TTITLE16=buddy miller - 100 million little bombs
TTITLE17=julie miller - the devil is an angel
TTITLE18=joe ely - lord of the highway
TTITLE19=the blasters - american music
TTITLE20=dick dale - nitro
TTITLE21=robert cray - phone booth
TTITLE22=joe louis walker - i'll get to heaven on my own
EXTD=
EXTT0=
EXTT1=
EXTT2=
EXTT3=
EXTT4=
EXTT5=
EXTT6=
EXTT7=
EXTT8=
EXTT9=
EXTT10=
EXTT11=
EXTT12=
EXTT13=
EXTT14=
EXTT15=
EXTT16=
EXTT17=
EXTT18=
EXTT19=
EXTT20=
EXTT21=
EXTT22=
PLAYORDER=
